<?xml version="1.0" encoding="utf-8"?>
<!-- Svg Vector Icons : http://www.onlinewebfonts.com/icon -->
<!DOCTYPE svg PUBLIC "-//W3C//DTD SVG 1.1//EN" "http://www.w3.org/Graphics/SVG/1.1/DTD/svg11.dtd">
<svg version="1.1" xmlns="http://www.w3.org/2000/svg" xmlns:xlink="http://www.w3.org/1999/xlink" x="0px" y="0px" viewBox="0 0 1000 1000" enable-background="new 0 0 1000 1000" xml:space="preserve">
<metadata> Svg Vector Icons : http://www.onlinewebfonts.com/icon </metadata>
<g><g transform="translate(0.000000,512.000000) scale(0.100000,-0.100000)"><path d="M8057.9,5003c-281.9-55.6-500.5-176.4-730.7-404.6c-281.9-280-489-657.8-590.7-1077.8l-34.5-138.1l-1047.1-5.8l-1049-5.7l-153.4-51.8c-324.1-111.2-247.4-42.2-2274.4-2067.3L304.5-617.9l-78.6-163c-186-381.6-164.9-822.7,57.5-1171.7c55.6-88.2,433.4-477.5,1307.9-1352c1035.6-1035.6,1252.3-1242.7,1365.4-1307.9c362.5-209,765.2-224.4,1141.1-40.3l163,78.6l1869.8,1873.6c1403.8,1403.8,1887.1,1898.6,1935,1981c34.5,61.4,90.1,186,122.7,278.1c57.5,163,61.4,182.2,71,571.5l9.6,402.7l128.5,13.4c404.6,38.4,803.5,308.8,1077.8,723c508.2,772.9,567.6,1919.7,140,2773c-164.9,333.7-441.1,646.3-705.7,801.6C8656.2,4991.5,8326.3,5054.8,8057.9,5003z M8564.2,4571.5c433.4-164.9,767.1-650.1,897.5-1302.1c46-234,46-759.4,0-980c-134.2-627.1-414.2-1064.3-803.5-1258c-130.4-63.3-345.2-117-381.6-94c-9.6,5.7-17.3,366.3-17.3,801.6c0,671.2-3.8,807.4-30.7,895.6c-55.6,184.1-140,327.9-274.2,458.3c-195.6,191.8-421.9,287.7-686.6,287.7c-74.8,0-141.9,7.7-147.7,15.3c-13.4,23,94,331.8,172.6,487.1c189.9,377.8,454.5,625.2,769,717.2C8188.3,4636.7,8431.8,4623.3,8564.2,4571.5z M6648.3,2768.8v-228.2l-84.4-42.2c-105.5-49.9-232-186-285.7-303c-53.7-124.7-53.7-343.3,0-467.9c97.8-218.6,312.6-364.4,538.9-366.3c226.3-1.9,377.8,71,515.9,251.2c111.2,145.8,140,362.5,74.8,554.2c-42.2,124.7-174.5,276.2-289.6,331.8l-86.3,42.2v126.6c0,71,5.8,174.5,13.4,232l11.5,103.6l166.8-9.6c285.8-17.3,467.9-128.5,579.2-356.7l63.3-128.5V1184.8c0-1455.6,3.8-1400-120.8-1649.3c-63.3-124.7-197.5-264.6-1890.9-1958C3861.9-4416.9,3967.3-4321,3693.1-4365.2c-159.2-26.8-335.6,0-487.1,74.8c-99.7,47.9-274.2,216.7-1353.9,1298.3C699.5-1835.7,609.4-1741.7,561.4-1628.5c-105.5,241.7-80.5,537,63.3,751.8c32.6,47.9,866.8,893.7,1856.4,1881.3l1798.8,1796.9l163,78.6c90.1,44.1,211,86.3,268.5,95.9c57.5,9.6,517.8,17.3,1022.2,19.2l914.8,1.9V2768.8z M6936,2143.7c61.4-32.6,115.1-117,115.1-182.2s-53.7-149.6-115.1-182.2c-30.7-15.3-72.9-28.8-95.9-28.8c-118.9,0-224.4,124.7-203.3,245.5C6659.8,2141.7,6803.7,2212.7,6936,2143.7z"/><path d="M4331.7,713c-316.4-61.4-537-306.8-556.1-615.6c-13.4-241.6,72.9-475.6,314.5-841.9c164.9-247.4,224.4-383.5,234-525.5c5.8-95.9,0-126.6-38.4-182.2c-69-101.6-153.4-138.1-299.2-128.5c-333.7,24.9-663.5,354.8-688.5,692.3c-7.7,103.5-1.9,128.5,49.9,226.3c76.7,141.9,76.7,212.9,3.8,285.7c-46,44.1-72.9,55.6-141.9,55.6c-105.5,0-168.8-55.6-247.4-222.5c-120.8-258.9-78.6-590.7,118.9-903.3c24.9-36.4,21.1-47.9-44.1-118.9c-94-103.6-99.7-207.1-15.4-291.5c84.4-84.4,187.9-78.6,291.5,15.3l76.7,71l128.5-69.1C3718-1945,3835-1977.6,4021-1975.6c211,1.9,347.1,51.8,489,180.3c318.3,293.4,293.4,680.8-84.4,1259.9c-187.9,287.7-255.1,437.3-255.1,571.5c-1.9,115.1,28.8,172.6,126.6,245.5c82.5,61.4,293.4,55.6,439.2-11.5c147.7-69,343.3-264.7,412.3-412.3c72.9-161.1,72.9-350.9,0-458.3c-72.9-105.5-72.9-203.3,1.9-278.1c46-44.1,72.9-55.6,140-55.6c70.9,0,94,9.6,143.8,63.3c209,220.5,228.2,579.2,49.8,937.8L5398,237.4l69,74.8c134.2,149.6,53.7,345.2-140,345.2c-40.3,0-82.5-21.1-136.2-69l-76.7-69L4955,598C4726.7,713,4523.5,751.4,4331.7,713z"/></g></g>
</svg>